<svg xmlns="http://www.w3.org/2000/svg" viewBox="0 0 420 420" role="img" aria-labelledby="title desc">
  <title id="title">Jiaxuan Wang monogram</title>
  <desc id="desc">A geometric monogram avatar for Jiaxuan Wang.</desc>
  <defs>
    <linearGradient id="bg" x1="0" y1="0" x2="1" y2="1">
      <stop offset="0" stop-color="#eef7f8"/>
      <stop offset="0.55" stop-color="#f8f4ec"/>
      <stop offset="1" stop-color="#eef2ea"/>
    </linearGradient>
    <linearGradient id="mark" x1="0" y1="0" x2="1" y2="1">
      <stop offset="0" stop-color="#27656f"/>
      <stop offset="1" stop-color="#183f48"/>
    </linearGradient>
  </defs>
  <rect width="420" height="420" rx="28" fill="url(#bg)"/>
  <path d="M76 92h268v236H76z" fill="none" stroke="#d7e0e6" stroke-width="2"/>
  <path d="M112 140h62v86c0 42-25 68-66 68-13 0-25-2-36-7l10-46c7 3 14 4 22 4 17 0 25-10 25-29v-76z" fill="url(#mark)"/>
  <path d="M188 140h53l27 83 30-83h54l-59 154h-46l-28-78-28 78h-46l-24-63c19-9 31-25 36-48l12 40z" fill="url(#mark)" opacity=".92"/>
  <path d="M107 328h206" stroke="#b06f21" stroke-width="8" stroke-linecap="round"/>
  <circle cx="326" cy="328" r="9" fill="#a15d58"/>
</svg>
